<?xml version="1.0" standalone="no"?>
<!DOCTYPE svg PUBLIC "-//W3C//DTD SVG 20010904//EN"
 "http://www.w3.org/TR/2001/REC-SVG-20010904/DTD/svg10.dtd">
<svg version="1.0" xmlns="http://www.w3.org/2000/svg"
 width="200.000000pt" height="200.000000pt" viewBox="0 0 200.000000 200.000000"
 preserveAspectRatio="xMidYMid meet">
<metadata>
Created by potrace 1.14, written by Peter Selinger 2001-2017
</metadata>
<g transform="translate(0.000000,200.000000) scale(0.100000,-0.100000)"
fill="#000000" stroke="none">
<path d="M882 1504 c-13 -9 -22 -26 -22 -41 0 -17 -7 -27 -21 -30 -12 -4 -22
-17 -26 -34 -3 -16 -13 -31 -23 -34 -30 -10 -100 -88 -127 -143 -70 -144 -67
-388 8 -567 32 -74 84 -148 126 -178 l36 -26 -33 -18 c-18 -10 -47 -30 -64
-44 -17 -14 -60 -33 -95 -43 -81 -21 -139 -55 -201 -116 -47 -48 -106 -150
-115 -203 l-5 -27 801 0 802 0 -7 89 c-4 50 -13 110 -20 135 -8 26 -11 46 -8
46 3 0 1 5 -6 12 -7 7 -12 20 -12 30 0 28 -69 87 -122 103 -32 9 -77 13 -135
10 -86 -4 -88 -4 -118 25 -24 23 -60 44 -95 55 -23 7 -134 18 -172 17 l-46 -1
34 50 c55 82 64 128 59 310 -6 220 -17 290 -61 384 -31 66 -102 132 -151 141
-19 4 -40 13 -48 20 -7 8 -24 15 -37 17 -14 3 -25 13 -28 27 -3 12 -15 29 -26
36 -17 12 -23 11 -42 -2z"/>
</g>
</svg>
